<?xml version="1.0" encoding="UTF-8" standalone="no"?>
<svg
   xmlns:dc="http://purl.org/dc/elements/1.1/"
   xmlns:cc="http://creativecommons.org/ns#"
   xmlns:rdf="http://www.w3.org/1999/02/22-rdf-syntax-ns#"
   xmlns:svg="http://www.w3.org/2000/svg"
   xmlns="http://www.w3.org/2000/svg"
   xml:space="preserve"
   enable-background="new 0 0 335.1 201.7"
   viewBox="0 0 335.1 201.7"
   y="0px"
   x="0px"
   id="Layer_1"
   version="1.1"><metadata
     id="metadata131"><rdf:RDF><cc:Work
         rdf:about=""><dc:format>image/svg+xml</dc:format><dc:type
           rdf:resource="http://purl.org/dc/dcmitype/StillImage" /></cc:Work></rdf:RDF></metadata><defs
     id="defs129" /><g
     id="g20"><path
       id="path2"
       d="M82.1,26.6c0.5,1.1,0.9,2.2,1,3.4c0.2,1.2,0.1,2.4-0.3,3.7c-0.3,1.2-1,2.4-1.9,3.5c-0.9,1.1-2.2,2-3.8,2.8   l-5.6,2.7c-0.5,0.2-1,0.5-1.6,0.8c-0.6,0.3-1.2,0.7-1.7,1c-0.1-0.1-0.1-0.1-0.2-0.2c0-0.1-0.1-0.2-0.1-0.2   c-0.1-0.2-0.1-0.3-0.1-0.4c0-0.1,0.1-0.2,0.2-0.2c0.5-0.3,0.8-0.7,1.1-1c0.2-0.3,0.3-0.7,0.1-1l-6.7-13.6c-0.2-0.4-0.4-0.6-0.8-0.6   c-0.3,0-0.9,0.1-1.5,0.3c-0.2,0-0.3,0-0.4,0c-0.1-0.1-0.1-0.2-0.2-0.3c0-0.1-0.1-0.1-0.1-0.2c0-0.1-0.1-0.2-0.1-0.3   c0.4-0.1,0.7-0.3,1.1-0.4c0.3-0.1,0.6-0.3,0.8-0.4c0.3-0.1,0.5-0.2,0.8-0.3c0.3-0.1,0.5-0.3,0.8-0.4l5.5-2.7c1.5-0.8,3-1.2,4.4-1.3   c1.4-0.1,2.7,0.1,3.9,0.5c1.2,0.4,2.2,1.1,3.2,1.9C80.7,24.3,81.5,25.4,82.1,26.6z M78.6,28.9c-0.7-1.4-1.4-2.5-2.3-3.4   s-1.7-1.4-2.6-1.8c-0.9-0.3-1.9-0.4-3-0.3s-2.2,0.5-3.4,1.1l-1.7,0.8l6.8,14c0.1,0.2,0.2,0.3,0.3,0.4c0.1,0.1,0.3,0.1,0.5,0.1   c0.2,0,0.5-0.1,0.8-0.2c0.3-0.1,0.7-0.3,1.2-0.5c2.4-1.2,3.8-2.6,4.3-4.4C79.9,33,79.6,31,78.6,28.9z"
       fill="#353D3F" /><path
       id="path4"
       d="M91,23.4c-0.4-1.4-0.5-2.7-0.3-4c0.2-1.3,0.6-2.6,1.2-3.7c0.6-1.1,1.5-2.1,2.5-3c1-0.9,2.2-1.5,3.6-1.9   c1.4-0.4,2.8-0.5,4.1-0.4c1.3,0.1,2.6,0.5,3.7,1.2c1.1,0.6,2.1,1.5,3,2.5c0.8,1.1,1.5,2.3,1.9,3.7c0.4,1.4,0.5,2.7,0.3,4   c-0.2,1.3-0.6,2.6-1.2,3.7c-0.6,1.1-1.5,2.1-2.5,3c-1.1,0.9-2.3,1.5-3.6,1.9c-1.4,0.4-2.8,0.5-4.1,0.4c-1.3-0.1-2.6-0.5-3.7-1.2   c-1.1-0.6-2.1-1.5-2.9-2.5S91.4,24.8,91,23.4z M103.6,28.8c0.8-0.2,1.5-0.6,2.1-1.2c0.6-0.5,1-1.2,1.3-1.9c0.3-0.8,0.5-1.6,0.5-2.5   c0-0.9-0.1-1.8-0.4-2.8c-0.4-1.4-0.9-2.6-1.5-3.7c-0.6-1.1-1.3-2-2.1-2.7c-0.8-0.7-1.6-1.2-2.6-1.5s-1.9-0.2-3,0.1   c-0.7,0.2-1.3,0.5-1.8,1c-0.6,0.5-1,1.1-1.3,1.8c-0.3,0.7-0.5,1.5-0.6,2.4c-0.1,0.9,0.1,1.9,0.3,2.9c0.4,1.4,0.9,2.7,1.5,3.9   c0.6,1.1,1.3,2.1,2.1,2.8c0.8,0.7,1.6,1.2,2.5,1.5S102.6,29.1,103.6,28.8z"
       fill="#353D3F" /><path
       id="path6"
       d="M135.5,16.8l-1.6-10.6c-0.1-0.4-0.3-0.7-0.6-0.9c-0.3-0.1-0.9-0.2-1.6-0.2c-0.3,0-0.4-0.2-0.5-0.5   c0-0.1,0-0.1,0-0.2s0-0.2,0-0.3c0.5,0,1-0.1,1.5-0.1c0.5-0.1,1-0.1,1.7-0.2c0.6-0.1,1.2-0.2,1.6-0.3c0.5-0.1,0.9-0.2,1.4-0.3   c0,0.1,0.1,0.2,0.1,0.3c0,0.1,0,0.2,0.1,0.2c0.1,0.3,0,0.5-0.3,0.6c-0.6,0.2-1.1,0.4-1.3,0.6c-0.2,0.2-0.3,0.5-0.2,0.9l2.7,17.5   c-0.1,0-0.2,0.1-0.4,0.1c-0.2,0-0.3,0.1-0.4,0.1c-0.1,0-0.3,0-0.5,0c-0.2,0-0.4-0.2-0.6-0.4l-14-13.1l2,12.9c0,0.2,0.1,0.4,0.1,0.5   c0,0.1,0.1,0.2,0.3,0.3c0.1,0.1,0.3,0.1,0.6,0.2c0.3,0,0.6,0.1,1,0.1c0.1,0,0.2,0,0.3,0.1c0.1,0.1,0.1,0.2,0.2,0.4   c0,0.1,0,0.3,0,0.5c-0.5,0-1,0.1-1.4,0.1c-0.4,0-1,0.1-1.5,0.2c-0.6,0.1-1.1,0.2-1.7,0.3c-0.5,0.1-1,0.2-1.4,0.3   c-0.1-0.1-0.1-0.2-0.1-0.3c0-0.1,0-0.2,0-0.2c0-0.2,0-0.3,0-0.4c0.1-0.1,0.1-0.2,0.2-0.2c0.7-0.2,1.2-0.5,1.4-0.7   c0.2-0.2,0.3-0.5,0.2-0.9l-2.3-15.1c0-0.3-0.2-0.5-0.4-0.7c-0.2-0.1-0.7-0.2-1.5-0.2c-0.2,0-0.4-0.2-0.4-0.5c0,0,0-0.1,0-0.1   c0,0,0-0.1,0-0.2l0-0.2c0.3,0,0.6,0,0.8-0.1c0.3,0,0.5-0.1,0.8-0.1c0.4,0,0.9-0.1,1.3-0.2c0.4-0.1,0.8-0.1,1.1-0.2   c0.6-0.1,1-0.1,1.1-0.1c0.2,0,0.4,0.1,0.5,0.2L135.5,16.8z"
       fill="#353D3F" /><path
       id="path8"
       d="M147.4,12.2c-0.1-1.4,0.2-2.7,0.6-4c0.5-1.2,1.2-2.4,2.1-3.3c0.9-1,1.9-1.7,3.2-2.3c1.2-0.6,2.5-0.9,3.9-1   c1.4-0.1,2.8,0.1,4.1,0.6c1.3,0.5,2.4,1.1,3.3,2c1,0.9,1.7,1.9,2.3,3.1c0.6,1.2,0.9,2.6,0.9,4c0.1,1.4-0.2,2.7-0.6,4   s-1.2,2.4-2.1,3.3c-0.9,1-1.9,1.7-3.2,2.3c-1.2,0.6-2.5,0.9-4,1c-1.4,0.1-2.8-0.1-4.1-0.6s-2.4-1.1-3.3-2c-0.9-0.9-1.7-1.9-2.3-3.1   S147.4,13.7,147.4,12.2z M158.4,20.4c0.8,0,1.6-0.3,2.3-0.7c0.7-0.4,1.2-0.9,1.7-1.6c0.5-0.7,0.8-1.4,1.1-2.3   c0.2-0.9,0.3-1.8,0.3-2.8c-0.1-1.4-0.2-2.8-0.6-4c-0.3-1.2-0.8-2.3-1.4-3.1c-0.6-0.9-1.3-1.5-2.2-2c-0.9-0.5-1.8-0.7-2.9-0.7   c-0.7,0-1.4,0.2-2,0.6c-0.7,0.3-1.2,0.8-1.7,1.4c-0.5,0.6-0.9,1.3-1.1,2.2c-0.3,0.9-0.4,1.8-0.3,2.9c0.1,1.5,0.3,2.9,0.6,4.1   c0.3,1.3,0.8,2.3,1.4,3.2c0.6,0.9,1.3,1.6,2.1,2.1C156.4,20.2,157.3,20.4,158.4,20.4z"
       fill="#353D3F" /><path
       id="path10"
       d="M190.5,5.3c0.1-0.3,0.2-0.5,0.2-0.6c0-0.3-0.1-0.5-0.3-0.6c-0.3-0.1-0.7-0.3-1.3-0.4   c-0.2,0-0.3-0.2-0.3-0.6c0,0,0-0.1,0-0.1c0,0,0-0.1,0-0.2l0-0.2c0.2,0,0.4,0.1,0.7,0.1c0.3,0,0.5,0.1,0.9,0.1   c0.3,0,0.6,0.1,0.9,0.1c0.3,0,0.6,0.1,0.9,0.1c0.6,0,1.1,0.1,1.7,0.1c0.5,0,1,0,1.4,0l0,0.2c0,0.1,0,0.1,0,0.2c0,0.1,0,0.1,0,0.2   c0,0.4-0.2,0.6-0.4,0.6c-0.6,0-1.1,0.1-1.4,0.2c-0.3,0.1-0.5,0.4-0.7,0.8L184,22.3c-0.1,0-0.2,0-0.2,0c-0.1,0-0.1,0-0.2,0   c-0.2,0-0.3,0-0.3-0.1c-0.1-0.1-0.1-0.2-0.2-0.4l-5.9-17.9c-0.1-0.1-0.1-0.3-0.2-0.4c-0.1-0.1-0.2-0.2-0.3-0.3   c-0.1-0.1-0.3-0.2-0.5-0.2c-0.2-0.1-0.5-0.1-0.9-0.2c-0.3,0-0.4-0.3-0.3-0.7c0-0.1,0-0.1,0-0.3c0-0.1,0-0.2,0.1-0.3   c0.3,0,0.6,0.1,1,0.1c0.4,0,0.8,0.1,1.2,0.1c0.4,0,0.8,0.1,1.1,0.1c0.4,0,0.7,0.1,1,0.1c0.7,0,1.4,0.1,2.2,0.1c0.8,0,1.5,0,2.1,0   c0,0.1,0,0.2,0,0.3c0,0.1,0,0.2,0,0.2c0,0.4-0.2,0.5-0.4,0.5c-0.6,0-1.1,0.1-1.4,0.2c-0.3,0.1-0.4,0.3-0.4,0.5c0,0.1,0,0.3,0.1,0.5   l3.6,12.2L190.5,5.3z"
       fill="#353D3F" /><path
       id="path12"
       d="M209.1,18.4l-6.3-1.1l-2.2,3.9c-0.1,0.1-0.1,0.2-0.2,0.3c0,0.1-0.1,0.2-0.1,0.3c0,0.2,0,0.4,0.2,0.6   s0.6,0.4,1.2,0.6c0.3,0.1,0.4,0.3,0.3,0.6c0,0.1-0.1,0.3-0.1,0.5c-0.5-0.1-1.1-0.3-1.7-0.4s-1.2-0.2-1.8-0.3   c-0.4-0.1-0.8-0.1-1.3-0.2c-0.4-0.1-0.9-0.1-1.5-0.1c0-0.1,0-0.2,0-0.3c0-0.1,0-0.2,0-0.2c0.1-0.4,0.2-0.6,0.5-0.5   c0.6,0,1.1-0.1,1.4-0.2s0.5-0.3,0.8-0.6l10.1-15.9c0.2-0.3,0.5-0.4,0.8-0.4c0.1,0,0.2,0,0.3,0.1c0.1,0,0.2,0.1,0.3,0.1l4.2,18.9   c0.1,0.3,0.3,0.6,0.6,0.8s0.7,0.4,1,0.5c0.3,0.1,0.4,0.3,0.3,0.7c0,0.2-0.1,0.3-0.1,0.5c-0.6-0.1-1.2-0.3-1.9-0.4   c-0.6-0.1-1.2-0.2-1.7-0.3c-0.3,0-0.6-0.1-1-0.2c-0.4-0.1-0.8-0.1-1.2-0.2c-0.4-0.1-0.8-0.1-1.2-0.2c-0.4-0.1-0.8-0.1-1-0.1   c0-0.1,0-0.2,0-0.3c0-0.1,0-0.2,0-0.2c0-0.2,0.1-0.3,0.2-0.4s0.2-0.1,0.3-0.1c0.5,0,0.9-0.1,1.2-0.1c0.3-0.1,0.4-0.3,0.5-0.5   c0-0.1,0-0.3,0-0.5L209.1,18.4z M208.8,16.8l-1.4-7.1l-3.7,6.3L208.8,16.8z"
       fill="#353D3F" /><path
       id="path14"
       d="M239.9,26.2l3.1-10.3c0.1-0.4,0.1-0.8-0.2-1s-0.7-0.6-1.4-0.9c-0.2-0.1-0.3-0.4-0.2-0.7   c0-0.1,0-0.1,0.1-0.2c0-0.1,0.1-0.2,0.1-0.3c0.5,0.2,0.9,0.4,1.4,0.5c0.5,0.2,1,0.3,1.6,0.5c0.6,0.2,1.1,0.3,1.6,0.5   s0.9,0.2,1.4,0.3c0,0.1,0,0.2,0,0.3c0,0.1,0,0.2-0.1,0.2c-0.1,0.3-0.3,0.5-0.5,0.4c-0.7-0.1-1.1-0.1-1.4,0   c-0.3,0.1-0.5,0.3-0.6,0.7l-5.1,16.9c-0.1,0-0.2,0-0.4-0.1c-0.2,0-0.3-0.1-0.4-0.1c-0.1,0-0.3-0.1-0.4-0.2   c-0.1-0.1-0.3-0.3-0.4-0.6l-7-17.9l-3.8,12.5c-0.1,0.2-0.1,0.4-0.1,0.5c0,0.1,0,0.3,0.1,0.4c0.1,0.1,0.3,0.3,0.5,0.4   c0.2,0.1,0.5,0.3,0.9,0.5c0.1,0,0.2,0.1,0.2,0.2c0,0.1,0,0.2,0,0.4c0,0.1-0.1,0.3-0.2,0.5c-0.5-0.2-0.9-0.4-1.3-0.5   c-0.4-0.2-0.9-0.3-1.5-0.5c-0.6-0.2-1.1-0.3-1.6-0.4s-1-0.2-1.4-0.3c0-0.1,0-0.2,0-0.3c0-0.1,0.1-0.2,0.1-0.2   c0.1-0.2,0.1-0.3,0.2-0.4c0.1-0.1,0.2-0.1,0.3-0.1c0.7,0.1,1.2,0.1,1.5,0s0.5-0.3,0.6-0.7l4.4-14.6c0.1-0.3,0.1-0.6-0.1-0.8   c-0.2-0.2-0.6-0.5-1.3-0.8c-0.2-0.1-0.3-0.3-0.2-0.7c0,0,0-0.1,0-0.1c0,0,0-0.1,0.1-0.2l0.1-0.2c0.3,0.1,0.5,0.2,0.8,0.3   c0.2,0.1,0.5,0.2,0.7,0.3c0.4,0.1,0.8,0.3,1.3,0.4c0.4,0.1,0.8,0.3,1.1,0.3c0.6,0.2,0.9,0.3,1.1,0.4c0.2,0.1,0.3,0.2,0.4,0.4   L239.9,26.2z"
       fill="#353D3F" /><path
       id="path16"
       d="M255.2,25.3c-0.3-0.4-0.3-0.7-0.2-1c0-0.1,0.2-0.2,0.3-0.3c0.7-0.2,1.2-0.5,1.5-0.8s0.6-0.6,0.7-0.8   c0.2-0.4,0.2-0.7,0-1.1c-0.1-0.3-0.3-0.6-0.5-0.9c-0.2-0.2-0.2-0.5-0.1-0.8c0.1-0.3,0.4-0.6,0.8-0.9c0.4-0.3,1-0.4,1.7-0.5   c0.5,0.6,0.8,1.2,1,1.9c0.2,0.7,0.2,1.4-0.1,2.1c-0.3,0.6-0.8,1.2-1.6,1.8S256.7,24.9,255.2,25.3z"
       fill="#353D3F" /><path
       id="path18"
       d="M274.7,33c-0.2,0-0.4-0.1-0.5-0.2c-0.2-0.1-0.4-0.3-0.4-0.4c-0.1-0.2-0.1-0.3,0-0.4c0.1-1.2,0-2.2-0.4-3   c-0.4-0.8-1.1-1.5-2.2-2.1c-0.8-0.5-1.7-0.7-2.5-0.6c-0.8,0.1-1.5,0.6-1.9,1.4c-0.4,0.7-0.4,1.3-0.2,1.9s0.6,1.3,1.1,2   c0.5,0.7,1.1,1.4,1.7,2.1c0.6,0.7,1.2,1.5,1.6,2.3c0.4,0.8,0.7,1.6,0.8,2.5c0.1,0.9-0.1,1.9-0.7,2.9c-0.4,0.7-0.8,1.3-1.4,1.8   c-0.6,0.5-1.3,0.9-2,1.1c-0.8,0.2-1.6,0.3-2.5,0.1c-0.9-0.1-1.9-0.5-3-1.1c-1.2-0.6-2.1-1.3-2.9-2.1c-0.8-0.8-1.4-1.4-1.8-2.1   c0.4-0.8,0.7-1.6,1-2.4c0.3-0.8,0.6-1.6,0.8-2.3c0.2,0,0.4,0.1,0.7,0.2c0.2,0.1,0.3,0.2,0.4,0.4c0.1,0.1,0.1,0.3,0,0.6   c-0.1,0.8-0.2,1.5-0.2,2.2c0,0.6,0.1,1.2,0.3,1.7c0.2,0.5,0.5,1,0.9,1.4c0.4,0.4,0.9,0.8,1.6,1.1c0.5,0.3,1.1,0.5,1.5,0.5   c0.5,0.1,0.9,0,1.3-0.1c0.4-0.1,0.7-0.3,1-0.6c0.3-0.3,0.6-0.6,0.8-0.9c0.4-0.8,0.5-1.5,0.3-2.1c-0.2-0.7-0.5-1.3-1-2   c-0.5-0.6-1-1.3-1.6-2c-0.6-0.7-1.1-1.4-1.5-2.1c-0.4-0.8-0.7-1.6-0.8-2.4c-0.1-0.9,0.2-1.8,0.7-2.9c0.4-0.7,0.9-1.3,1.5-1.8   c0.6-0.5,1.3-0.8,2-1s1.5-0.2,2.4-0.1s1.7,0.4,2.6,0.9c0.7,0.4,1.4,0.9,2.1,1.5c0.7,0.6,1.4,1.3,2.1,2.2c-0.3,0.5-0.5,1.2-0.8,1.9   C275.1,31.8,274.8,32.5,274.7,33z"
       fill="#353D3F" /></g><g
     id="g96"><path
       id="path22"
       d="M9.8,119.6v7.9c0,0.6,0.3,1.1,0.8,1.3c0.5,0.3,1.4,0.5,2.7,0.6c0.4,0.1,0.6,0.3,0.6,0.8   c0,0.2,0,0.5-0.1,0.7c-0.8-0.1-1.8-0.1-3-0.1s-2.5-0.1-3.9-0.1c-1,0-1.9,0-2.8,0.1c-0.9,0-1.8,0.1-2.6,0.1   c-0.1-0.1-0.1-0.2-0.1-0.4s0-0.2,0-0.3c0-0.5,0.1-0.7,0.5-0.8c0.6-0.1,1-0.2,1.4-0.3c0.4-0.1,0.6-0.2,0.8-0.3   c0.2-0.1,0.3-0.3,0.4-0.5c0.1-0.2,0.1-0.4,0.1-0.7v-20.5c0-0.5-0.2-0.9-0.6-1.2c-0.4-0.2-1.2-0.4-2.3-0.6c-0.1-0.1-0.2-0.1-0.3-0.2   s-0.1-0.3-0.1-0.6c0-0.1,0-0.2,0-0.4c0-0.1,0-0.2,0.1-0.3c0.8,0.1,1.6,0.1,2.6,0.1c1,0,1.9,0.1,2.7,0.1h6.2c2.9,0,5.2,0.7,6.8,2   c1.6,1.3,2.5,3.1,2.5,5.5c0,1.1-0.2,2.1-0.6,3.1c-0.4,1-1,1.8-1.8,2.5c-0.8,0.7-1.8,1.3-2.9,1.7c-1.1,0.4-2.5,0.7-3.9,0.7H9.8z    M11.1,117.6c1.7,0,3-0.4,4-1.3s1.5-2.3,1.5-4.3c0-1.8-0.4-3.3-1.2-4.3c-0.8-1-2.3-1.5-4.4-1.5H9.8v11.4H11.1z"
       fill="#353D3F" /><path
       id="path24"
       d="M38.6,122.5h-1.2v6c0,0.4,0.2,0.8,0.6,0.9s1,0.3,1.9,0.4c0.3,0,0.4,0.2,0.4,0.6c0,0.2,0,0.3-0.1,0.5   c-0.6,0-1.2-0.1-2.1-0.1c-0.8,0-1.7,0-2.7,0c-0.7,0-1.4,0-2,0s-1.2,0.1-1.8,0.1c0-0.1-0.1-0.2-0.1-0.3c0-0.1,0-0.2,0-0.2   c0-0.3,0.1-0.5,0.3-0.5c0.4-0.1,0.7-0.1,1-0.2c0.2-0.1,0.4-0.1,0.6-0.2c0.1-0.1,0.2-0.2,0.3-0.3c0-0.1,0.1-0.3,0.1-0.5v-14.4   c0-0.4-0.1-0.7-0.4-0.8c-0.3-0.2-0.8-0.3-1.6-0.4c-0.1,0-0.2-0.1-0.2-0.2c-0.1-0.1-0.1-0.2-0.1-0.4c0-0.1,0-0.2,0-0.3   c0-0.1,0-0.2,0.1-0.2c0.5,0,1.2,0.1,1.9,0.1c0.7,0,1.3,0,1.9,0h4.3c1,0,1.9,0.1,2.7,0.4c0.8,0.2,1.5,0.6,2.1,1.1   c0.6,0.5,1,1,1.3,1.6c0.3,0.6,0.4,1.3,0.4,2.1c0,1-0.3,1.9-0.9,2.8c-0.6,0.8-1.5,1.5-2.6,1.9l4.5,6.6c0.3,0.5,0.7,0.8,1.2,1   c0.4,0.2,0.9,0.3,1.2,0.4c0.1,0,0.2,0.1,0.2,0.1c0.1,0.1,0.1,0.2,0.1,0.4c0,0.1,0,0.2,0,0.3s0,0.2-0.1,0.3c-0.2,0-0.5,0-0.9,0   c-0.4,0-0.8,0-1.2,0c-0.4,0-0.8,0-1.2,0c-0.4,0-0.8,0-1,0c-0.4,0-0.8-0.2-1.2-0.5s-0.8-0.8-1.2-1.3L38.6,122.5z M38.3,121.1   c0.6,0,1.1-0.1,1.6-0.2c0.5-0.1,0.9-0.3,1.2-0.6c0.3-0.3,0.6-0.6,0.8-1.1c0.2-0.5,0.3-1,0.3-1.8c0-1.2-0.3-2.1-0.9-2.8   c-0.6-0.7-1.6-1-3-1h-0.9v7.5H38.3z"
       fill="#353D3F" /><path
       id="path26"
       d="M61.7,128.7c0,0.2,0,0.3,0,0.5c0,0.1,0.1,0.2,0.2,0.3s0.3,0.2,0.5,0.2s0.6,0.1,1,0.2c0.2,0,0.3,0.2,0.3,0.5   c0,0.1,0,0.1,0,0.3c0,0.1,0,0.2,0,0.3c-0.6,0-1.3-0.1-2-0.1c-0.7,0-1.3,0-1.9,0c-0.6,0-1.2,0-1.9,0c-0.7,0-1.3,0.1-2,0.1   c0-0.1-0.1-0.2-0.1-0.3c0-0.1,0-0.2,0-0.3c0-0.3,0.1-0.5,0.3-0.5c0.4-0.1,0.7-0.1,1-0.2c0.2-0.1,0.4-0.1,0.5-0.2s0.2-0.2,0.2-0.3   c0-0.1,0.1-0.3,0.1-0.5v-14.4c0-0.2,0-0.3-0.1-0.5c0-0.1-0.1-0.2-0.2-0.3s-0.3-0.2-0.5-0.2c-0.2-0.1-0.6-0.1-1-0.2   c-0.2-0.1-0.3-0.2-0.3-0.5c0-0.1,0-0.1,0-0.3c0-0.1,0-0.2,0.1-0.3c0.6,0,1.3,0.1,2,0.1c0.7,0,1.3,0,1.9,0c0.5,0,1.2,0,1.9,0   c0.7,0,1.4-0.1,2-0.1c0,0.1,0,0.2,0,0.3c0,0.1,0,0.2,0,0.3c0,0.3-0.1,0.4-0.3,0.5c-0.4,0.1-0.7,0.1-1,0.2s-0.4,0.1-0.5,0.2   s-0.2,0.2-0.2,0.3c0,0.1,0,0.3,0,0.5V128.7z"
       fill="#353D3F" /><path
       id="path28"
       d="M84.6,114.6c0.1-0.2,0.1-0.4,0.1-0.6c0-0.3-0.1-0.5-0.4-0.6c-0.2-0.1-0.7-0.2-1.3-0.3   c-0.2,0-0.3-0.2-0.3-0.5c0,0,0-0.1,0-0.1c0,0,0-0.1,0-0.2l0-0.2c0.2,0,0.4,0,0.6,0.1c0.2,0,0.5,0,0.8,0c0.3,0,0.6,0,0.9,0   c0.3,0,0.6,0,0.8,0c0.6,0,1.1,0,1.6,0c0.5,0,0.9-0.1,1.3-0.1l0,0.2c0,0.1,0,0.1,0,0.2s0,0.1,0,0.1c0,0.4-0.1,0.6-0.3,0.6   c-0.6,0.1-1,0.2-1.3,0.3s-0.5,0.4-0.6,0.8l-7.1,16.9c-0.1,0-0.2,0-0.2,0c-0.1,0-0.1,0-0.2,0c-0.2,0-0.3,0-0.3-0.1   c-0.1-0.1-0.1-0.2-0.2-0.4l-6.7-16.6c-0.1-0.1-0.1-0.3-0.2-0.4c-0.1-0.1-0.2-0.2-0.3-0.3c-0.1-0.1-0.3-0.1-0.5-0.2   c-0.2,0-0.5-0.1-0.9-0.1c-0.2,0-0.4-0.2-0.4-0.6c0-0.1,0-0.1,0-0.2c0-0.1,0-0.2,0.1-0.2c0.3,0,0.6,0,1,0.1c0.4,0,0.7,0,1.1,0   c0.4,0,0.7,0,1.1,0c0.4,0,0.7,0,0.9,0c0.6,0,1.3,0,2.1,0c0.7,0,1.4-0.1,2-0.1c0,0.1,0.1,0.2,0.1,0.3s0,0.2,0,0.2   c0,0.3-0.1,0.5-0.3,0.5c-0.6,0.1-1,0.2-1.3,0.3c-0.2,0.1-0.4,0.3-0.4,0.5c0,0.1,0,0.3,0.1,0.5l4.2,11.3L84.6,114.6z"
       fill="#353D3F" /><path
       id="path30"
       d="M101.6,124.5h-6l-1.5,4c-0.1,0.1-0.1,0.2-0.1,0.3c0,0.1,0,0.2,0,0.3c0,0.2,0.1,0.4,0.3,0.5   c0.2,0.1,0.6,0.2,1.2,0.3c0.3,0,0.4,0.2,0.4,0.5c0,0.1,0,0.3-0.1,0.5c-0.5,0-1.1-0.1-1.6-0.1c-0.6,0-1.1,0-1.7,0   c-0.4,0-0.8,0-1.2,0c-0.4,0-0.9,0.1-1.4,0.1c0-0.1-0.1-0.2-0.1-0.3c0-0.1,0-0.2,0-0.2c0-0.4,0.1-0.6,0.4-0.6c0.6-0.1,1-0.2,1.3-0.4   s0.5-0.4,0.6-0.7l6.9-16.5c0.2-0.3,0.4-0.5,0.7-0.5c0.1,0,0.2,0,0.3,0c0.1,0,0.2,0,0.3,0l6.9,17c0.1,0.3,0.3,0.5,0.7,0.6   c0.3,0.1,0.7,0.2,1.1,0.3c0.3,0.1,0.4,0.2,0.4,0.6c0,0.2,0,0.3-0.1,0.5c-0.6,0-1.2-0.1-1.8-0.1c-0.6,0-1.1,0-1.7,0   c-0.3,0-0.6,0-1,0c-0.4,0-0.8,0-1.2,0c-0.4,0-0.8,0-1.2,0s-0.7,0-1,0c0-0.1-0.1-0.2-0.1-0.3c0-0.1,0-0.2,0-0.2c0-0.2,0-0.3,0.1-0.4   c0.1-0.1,0.1-0.1,0.2-0.2c0.5-0.1,0.9-0.2,1.1-0.3c0.2-0.1,0.4-0.3,0.4-0.6c0-0.1,0-0.3-0.1-0.4L101.6,124.5z M101.1,123.1   l-2.4-6.5l-2.5,6.5H101.1z"
       fill="#353D3F" /><path
       id="path32"
       d="M122.3,113.6v15.1c0,0.2,0,0.3,0,0.5c0,0.1,0.1,0.2,0.2,0.3s0.3,0.2,0.5,0.2c0.2,0.1,0.5,0.1,0.9,0.2   c0.3,0.1,0.4,0.2,0.4,0.5c0,0.1,0,0.1,0,0.3c0,0.1,0,0.2,0,0.3c-0.6,0-1.3-0.1-2-0.1c-0.7,0-1.3,0-1.9,0c-0.6,0-1.2,0-1.9,0   c-0.7,0-1.3,0.1-1.9,0.1c0-0.1-0.1-0.2-0.1-0.3c0-0.1,0-0.2,0-0.3c0-0.1,0-0.2,0.1-0.3c0-0.1,0.2-0.1,0.4-0.2   c0.7-0.1,1.2-0.2,1.3-0.4c0.2-0.2,0.3-0.4,0.3-0.8v-15.1h-2.5c-0.5,0-1,0.1-1.4,0.2c-0.4,0.1-0.7,0.3-1,0.5s-0.5,0.5-0.7,0.9   c-0.2,0.4-0.4,0.8-0.7,1.3c-0.1,0.2-0.2,0.3-0.4,0.3c-0.1,0-0.2,0-0.4-0.1c-0.2,0-0.3-0.1-0.3-0.1c0.1-0.5,0.2-0.9,0.3-1.2   c0.1-0.4,0.2-0.7,0.2-1c0.1-0.4,0.1-0.8,0.2-1.2c0-0.3,0.1-0.6,0.1-0.7c0.1-0.2,0.2-0.3,0.5-0.3c0.2,0,0.6,0,1.2,0.1   c0.6,0.1,1.4,0.1,2.3,0.1h8.8c0.9,0,1.6,0,2.2-0.1c0.6-0.1,1-0.1,1.3-0.1c0.2,0,0.4,0.1,0.5,0.3c0.1,0.2,0.1,0.4,0.1,0.7   c0,0.3,0.1,0.7,0.2,1.2c0.1,0.3,0.1,0.7,0.2,1c0.1,0.4,0.2,0.8,0.4,1.2c-0.1,0-0.2,0.1-0.4,0.1c-0.1,0-0.3,0.1-0.4,0.1   c-0.2,0-0.4-0.1-0.5-0.3c-0.2-0.5-0.5-0.9-0.7-1.3c-0.2-0.4-0.5-0.6-0.7-0.9c-0.3-0.2-0.6-0.4-1-0.5c-0.4-0.1-0.8-0.2-1.3-0.2   H122.3z"
       fill="#353D3F" /><path
       id="path34"
       d="M141.7,113.6v6.9h4c0.4,0,0.6-0.1,0.7-0.4c0.1-0.3,0.2-0.8,0.3-1.4c0-0.2,0.1-0.3,0.2-0.3   c0.1,0,0.2-0.1,0.4-0.1c0.1,0,0.1,0,0.3,0c0.1,0,0.2,0,0.3,0c0,0.4-0.1,1-0.1,1.5s0,1.1,0,1.5c0,0.3,0,0.8,0,1.2   c0,0.5,0.1,1,0.1,1.6c-0.1,0-0.1,0.1-0.3,0.1s-0.2,0-0.3,0c-0.3,0-0.5-0.1-0.5-0.4c-0.1-0.7-0.2-1.2-0.4-1.5   c-0.1-0.3-0.4-0.4-0.7-0.4h-4v6.4c0,0.4,0.2,0.7,0.7,0.8s1.3,0.2,2.5,0.2h1.2c0.6,0,1.1-0.1,1.4-0.2c0.4-0.2,0.7-0.4,1-0.6   c0.3-0.3,0.6-0.6,0.8-1s0.5-0.8,0.7-1.2c0.1-0.1,0.2-0.2,0.4-0.2c0.1,0,0.2,0,0.3,0.1c0.1,0.1,0.3,0.1,0.4,0.2   c0,0.2-0.1,0.3-0.1,0.4c0,0.1-0.1,0.3-0.1,0.4c-0.1,0.2-0.2,0.4-0.2,0.7c-0.1,0.2-0.1,0.5-0.2,0.6c0,0.2-0.1,0.4-0.1,0.6   c0,0.2-0.1,0.5-0.1,0.7s-0.1,0.4-0.1,0.6c0,0.2-0.1,0.3-0.1,0.3c-0.1,0.2-0.2,0.2-0.5,0.2c-0.2,0-0.4,0-0.7,0c-0.3,0-0.6,0-0.9,0   c-0.3,0-0.7,0-1,0c-0.3,0-0.6,0-0.9,0h-6.5c-0.6,0-1.2,0-1.9,0c-0.7,0-1.4,0.1-1.9,0.1c0-0.1-0.1-0.2-0.1-0.3c0-0.1,0-0.2,0-0.3   c0-0.3,0.1-0.4,0.3-0.5c0.7-0.1,1.2-0.3,1.6-0.4c0.3-0.2,0.5-0.4,0.5-0.8v-14.4c0-0.2,0-0.3-0.1-0.5c-0.1-0.1-0.2-0.2-0.3-0.3   c-0.2-0.1-0.4-0.2-0.6-0.2c-0.3-0.1-0.6-0.1-1-0.2c-0.2-0.1-0.3-0.2-0.3-0.5c0-0.1,0-0.2,0-0.3c0-0.1,0-0.2,0.1-0.3   c0.8,0.1,1.5,0.1,2.2,0.1c0.6,0,1.2,0,1.6,0h5.9c0.9,0,1.6,0,2.2-0.1c0.6-0.1,1-0.1,1.3-0.1c0.2,0,0.4,0.1,0.5,0.3   c0.1,0.2,0.1,0.4,0.1,0.8c0,0.4,0.1,0.8,0.2,1.3c0.1,0.3,0.1,0.6,0.2,0.9c0.1,0.3,0.2,0.7,0.3,1.1c-0.1,0-0.2,0.1-0.3,0.1   s-0.2,0.1-0.3,0.1c-0.2,0-0.4-0.1-0.5-0.3c-0.2-0.5-0.5-0.9-0.7-1.3c-0.2-0.4-0.5-0.6-0.7-0.9s-0.6-0.4-1-0.5s-0.8-0.1-1.3-0.1   H141.7z"
       fill="#353D3F" /><path
       id="path36"
       d="M183.7,118.9H182v8.6c0,0.6,0.3,1.1,0.8,1.3s1.4,0.5,2.7,0.6c0.4,0.1,0.6,0.3,0.6,0.8c0,0.2,0,0.5-0.1,0.7   c-0.8-0.1-1.8-0.1-3-0.1c-1.2,0-2.5-0.1-3.9-0.1c-1,0-1.9,0-2.8,0.1s-1.8,0.1-2.6,0.1c-0.1-0.1-0.1-0.2-0.1-0.4s0-0.2,0-0.3   c0-0.5,0.2-0.7,0.5-0.8c0.6-0.1,1-0.2,1.4-0.3c0.4-0.1,0.6-0.2,0.8-0.3s0.3-0.3,0.4-0.5s0.1-0.4,0.1-0.7v-20.5   c0-0.5-0.2-0.9-0.6-1.2s-1.2-0.4-2.3-0.6c-0.1-0.1-0.2-0.1-0.3-0.2s-0.1-0.3-0.1-0.6c0-0.1,0-0.2,0-0.4c0-0.1,0-0.2,0.1-0.3   c0.8,0.1,1.6,0.1,2.6,0.1s1.9,0.1,2.7,0.1h6.2c1.4,0,2.7,0.2,3.9,0.5c1.1,0.4,2.1,0.9,2.9,1.5c0.8,0.7,1.4,1.4,1.8,2.3   c0.4,0.9,0.6,1.9,0.6,3c0,1.4-0.4,2.8-1.3,4c-0.9,1.2-2.1,2.1-3.7,2.7l6.4,9.4c0.5,0.7,1.1,1.2,1.7,1.5c0.6,0.3,1.2,0.5,1.8,0.6   c0.1,0,0.2,0.1,0.3,0.2c0.1,0.1,0.1,0.3,0.1,0.5c0,0.1,0,0.2,0,0.4s0,0.3-0.1,0.4c-0.3,0-0.7,0-1.3-0.1c-0.5,0-1.1,0-1.7-0.1   c-0.6,0-1.2,0-1.8-0.1s-1.1,0-1.5,0c-0.6,0-1.1-0.2-1.7-0.7c-0.6-0.5-1.1-1.1-1.7-1.9L183.7,118.9z M183.2,116.9   c0.8,0,1.6-0.1,2.3-0.2c0.7-0.2,1.3-0.4,1.8-0.8s0.9-0.9,1.1-1.6c0.3-0.7,0.4-1.5,0.4-2.5c0-1.7-0.4-3-1.2-4s-2.3-1.5-4.3-1.5H182   v10.7H183.2z"
       fill="#353D3F" /><path
       id="path38"
       d="M213.9,113.6v6.9h4c0.4,0,0.6-0.1,0.7-0.4s0.2-0.8,0.3-1.4c0-0.2,0.1-0.3,0.2-0.3c0.1,0,0.2-0.1,0.4-0.1   c0.1,0,0.1,0,0.3,0c0.1,0,0.2,0,0.3,0c0,0.4-0.1,1-0.1,1.5c0,0.6,0,1.1,0,1.5c0,0.3,0,0.8,0,1.2c0,0.5,0.1,1,0.1,1.6   c-0.1,0-0.1,0.1-0.3,0.1s-0.2,0-0.3,0c-0.3,0-0.5-0.1-0.5-0.4c-0.1-0.7-0.2-1.2-0.4-1.5c-0.1-0.3-0.4-0.4-0.7-0.4h-4v6.4   c0,0.4,0.2,0.7,0.7,0.8c0.5,0.1,1.3,0.2,2.5,0.2h1.2c0.6,0,1.1-0.1,1.4-0.2c0.4-0.2,0.7-0.4,1-0.6c0.3-0.3,0.6-0.6,0.8-1   c0.2-0.4,0.5-0.8,0.7-1.2c0.1-0.1,0.2-0.2,0.4-0.2c0.1,0,0.2,0,0.3,0.1s0.3,0.1,0.4,0.2c0,0.2-0.1,0.3-0.1,0.4s-0.1,0.3-0.1,0.4   c-0.1,0.2-0.2,0.4-0.2,0.7c-0.1,0.2-0.1,0.5-0.2,0.6c0,0.2-0.1,0.4-0.1,0.6c0,0.2-0.1,0.5-0.1,0.7s-0.1,0.4-0.1,0.6   c0,0.2-0.1,0.3-0.1,0.3c-0.1,0.2-0.2,0.2-0.5,0.2c-0.2,0-0.4,0-0.7,0c-0.3,0-0.6,0-0.9,0s-0.7,0-1,0c-0.3,0-0.6,0-0.9,0h-6.5   c-0.6,0-1.2,0-1.9,0s-1.4,0.1-1.9,0.1c0-0.1-0.1-0.2-0.1-0.3c0-0.1,0-0.2,0-0.3c0-0.3,0.1-0.4,0.3-0.5c0.7-0.1,1.2-0.3,1.6-0.4   c0.3-0.2,0.5-0.4,0.5-0.8v-14.4c0-0.2,0-0.3-0.1-0.5c-0.1-0.1-0.2-0.2-0.3-0.3c-0.2-0.1-0.4-0.2-0.6-0.2c-0.3-0.1-0.6-0.1-1-0.2   c-0.2-0.1-0.3-0.2-0.3-0.5c0-0.1,0-0.2,0-0.3c0-0.1,0-0.2,0.1-0.3c0.8,0.1,1.5,0.1,2.2,0.1c0.6,0,1.2,0,1.6,0h5.9   c0.9,0,1.6,0,2.2-0.1s1-0.1,1.3-0.1c0.2,0,0.4,0.1,0.5,0.3c0.1,0.2,0.1,0.4,0.1,0.8c0,0.4,0.1,0.8,0.2,1.3c0.1,0.3,0.1,0.6,0.2,0.9   c0.1,0.3,0.2,0.7,0.3,1.1c-0.1,0-0.2,0.1-0.3,0.1c-0.1,0-0.2,0.1-0.3,0.1c-0.2,0-0.4-0.1-0.5-0.3c-0.2-0.5-0.5-0.9-0.7-1.3   c-0.2-0.4-0.5-0.6-0.7-0.9c-0.3-0.2-0.6-0.4-1-0.5s-0.8-0.1-1.3-0.1H213.9z"
       fill="#353D3F" /><path
       id="path40"
       d="M242.3,116.8c-0.2,0.1-0.4,0.1-0.5,0.1c-0.3,0-0.5-0.1-0.6-0.2c-0.1-0.1-0.2-0.2-0.2-0.3   c-0.4-1.1-1-1.9-1.7-2.4s-1.6-0.7-2.8-0.7c-0.9,0-1.7,0.2-2.3,0.7c-0.6,0.4-1,1.1-1,2.1c0,0.7,0.2,1.3,0.7,1.7   c0.5,0.4,1.1,0.8,1.8,1.1s1.5,0.6,2.4,0.9c0.9,0.3,1.6,0.7,2.4,1.1c0.7,0.5,1.3,1,1.8,1.8c0.5,0.7,0.7,1.6,0.7,2.7   c0,0.7-0.1,1.4-0.4,2.1c-0.2,0.7-0.6,1.3-1.2,1.8c-0.5,0.5-1.2,0.9-2,1.3c-0.8,0.3-1.8,0.5-3,0.5c-1.3,0-2.4-0.1-3.4-0.4   c-1-0.3-1.8-0.6-2.5-0.9c-0.1-0.8-0.1-1.6-0.3-2.4c-0.1-0.8-0.3-1.6-0.4-2.3c0.2-0.1,0.4-0.1,0.7-0.1c0.2,0,0.4,0,0.5,0.1   c0.1,0.1,0.2,0.2,0.3,0.4c0.2,0.7,0.5,1.4,0.8,1.9c0.3,0.5,0.7,1,1.1,1.3c0.4,0.3,0.9,0.6,1.4,0.7c0.5,0.2,1.1,0.2,1.8,0.2   c0.6,0,1.1-0.1,1.5-0.2s0.8-0.4,1-0.6c0.3-0.3,0.5-0.6,0.6-0.9c0.1-0.4,0.2-0.7,0.2-1.1c0-0.8-0.2-1.5-0.7-1.9   c-0.5-0.5-1.1-0.9-1.8-1.2c-0.7-0.3-1.5-0.6-2.3-0.9c-0.8-0.3-1.6-0.6-2.3-1.1s-1.3-1-1.8-1.7c-0.5-0.7-0.7-1.6-0.7-2.7   c0-0.8,0.1-1.5,0.4-2.1c0.3-0.7,0.7-1.2,1.2-1.7c0.5-0.5,1.2-0.9,1.9-1.2c0.8-0.3,1.6-0.4,2.6-0.4c0.8,0,1.6,0.1,2.4,0.3   s1.7,0.5,2.8,0.9c0,0.6,0.1,1.2,0.2,1.9C242.1,115.6,242.2,116.2,242.3,116.8z"
       fill="#353D3F" /><path
       id="path42"
       d="M255.9,113.6v6.9h4c0.4,0,0.6-0.1,0.7-0.4s0.2-0.8,0.3-1.4c0-0.2,0.1-0.3,0.2-0.3c0.1,0,0.2-0.1,0.4-0.1   c0.1,0,0.1,0,0.3,0c0.1,0,0.2,0,0.3,0c0,0.4-0.1,1-0.1,1.5c0,0.6,0,1.1,0,1.5c0,0.3,0,0.8,0,1.2c0,0.5,0.1,1,0.1,1.6   c-0.1,0-0.1,0.1-0.3,0.1s-0.2,0-0.3,0c-0.3,0-0.5-0.1-0.5-0.4c-0.1-0.7-0.2-1.2-0.4-1.5c-0.1-0.3-0.4-0.4-0.7-0.4h-4v6.4   c0,0.4,0.2,0.7,0.7,0.8c0.5,0.1,1.3,0.2,2.5,0.2h1.2c0.6,0,1.1-0.1,1.4-0.2c0.4-0.2,0.7-0.4,1-0.6c0.3-0.3,0.6-0.6,0.8-1   c0.2-0.4,0.5-0.8,0.7-1.2c0.1-0.1,0.2-0.2,0.4-0.2c0.1,0,0.2,0,0.3,0.1s0.3,0.1,0.4,0.2c0,0.2-0.1,0.3-0.1,0.4s-0.1,0.3-0.1,0.4   c-0.1,0.2-0.2,0.4-0.2,0.7c-0.1,0.2-0.1,0.5-0.2,0.6c0,0.2-0.1,0.4-0.1,0.6c0,0.2-0.1,0.5-0.1,0.7s-0.1,0.4-0.1,0.6   c0,0.2-0.1,0.3-0.1,0.3c-0.1,0.2-0.2,0.2-0.5,0.2c-0.2,0-0.4,0-0.7,0c-0.3,0-0.6,0-0.9,0s-0.7,0-1,0c-0.3,0-0.6,0-0.9,0h-6.5   c-0.6,0-1.2,0-1.9,0s-1.4,0.1-1.9,0.1c0-0.1-0.1-0.2-0.1-0.3c0-0.1,0-0.2,0-0.3c0-0.3,0.1-0.4,0.3-0.5c0.7-0.1,1.2-0.3,1.6-0.4   c0.3-0.2,0.5-0.4,0.5-0.8v-14.4c0-0.2,0-0.3-0.1-0.5c-0.1-0.1-0.2-0.2-0.3-0.3c-0.2-0.1-0.4-0.2-0.6-0.2c-0.3-0.1-0.6-0.1-1-0.2   c-0.2-0.1-0.3-0.2-0.3-0.5c0-0.1,0-0.2,0-0.3c0-0.1,0-0.2,0.1-0.3c0.8,0.1,1.5,0.1,2.2,0.1c0.6,0,1.2,0,1.6,0h5.9   c0.9,0,1.6,0,2.2-0.1s1-0.1,1.3-0.1c0.2,0,0.4,0.1,0.5,0.3c0.1,0.2,0.1,0.4,0.1,0.8c0,0.4,0.1,0.8,0.2,1.3c0.1,0.3,0.1,0.6,0.2,0.9   c0.1,0.3,0.2,0.7,0.3,1.1c-0.1,0-0.2,0.1-0.3,0.1c-0.1,0-0.2,0.1-0.3,0.1c-0.2,0-0.4-0.1-0.5-0.3c-0.2-0.5-0.5-0.9-0.7-1.3   c-0.2-0.4-0.5-0.6-0.7-0.9c-0.3-0.2-0.6-0.4-1-0.5s-0.8-0.1-1.3-0.1H255.9z"
       fill="#353D3F" /><path
       id="path44"
       d="M279.1,122.5h-1.2v6c0,0.4,0.2,0.8,0.6,0.9s1,0.3,1.9,0.4c0.3,0,0.4,0.2,0.4,0.6c0,0.2,0,0.3-0.1,0.5   c-0.6,0-1.2-0.1-2.1-0.1c-0.8,0-1.7,0-2.7,0c-0.7,0-1.4,0-2,0c-0.6,0-1.2,0.1-1.8,0.1c0-0.1-0.1-0.2-0.1-0.3c0-0.1,0-0.2,0-0.2   c0-0.3,0.1-0.5,0.3-0.5c0.4-0.1,0.7-0.1,1-0.2c0.2-0.1,0.4-0.1,0.6-0.2c0.1-0.1,0.2-0.2,0.3-0.3c0-0.1,0.1-0.3,0.1-0.5v-14.4   c0-0.4-0.1-0.7-0.4-0.8s-0.8-0.3-1.6-0.4c-0.1,0-0.2-0.1-0.2-0.2c-0.1-0.1-0.1-0.2-0.1-0.4c0-0.1,0-0.2,0-0.3c0-0.1,0-0.2,0.1-0.2   c0.5,0,1.2,0.1,1.9,0.1c0.7,0,1.3,0,1.9,0h4.3c1,0,1.9,0.1,2.7,0.4c0.8,0.2,1.5,0.6,2.1,1.1c0.6,0.5,1,1,1.3,1.6   c0.3,0.6,0.4,1.3,0.4,2.1c0,1-0.3,1.9-0.9,2.8c-0.6,0.8-1.5,1.5-2.6,1.9l4.5,6.6c0.3,0.5,0.7,0.8,1.2,1c0.4,0.2,0.9,0.3,1.2,0.4   c0.1,0,0.2,0.1,0.2,0.1c0.1,0.1,0.1,0.2,0.1,0.4c0,0.1,0,0.2,0,0.3s0,0.2-0.1,0.3c-0.2,0-0.5,0-0.9,0s-0.8,0-1.2,0   c-0.4,0-0.8,0-1.2,0c-0.4,0-0.8,0-1,0c-0.4,0-0.8-0.2-1.2-0.5s-0.8-0.8-1.2-1.3L279.1,122.5z M278.8,121.1c0.6,0,1.1-0.1,1.6-0.2   c0.5-0.1,0.9-0.3,1.2-0.6c0.3-0.3,0.6-0.6,0.8-1.1c0.2-0.5,0.3-1,0.3-1.8c0-1.2-0.3-2.1-0.9-2.8c-0.6-0.7-1.6-1-3-1h-0.9v7.5H278.8   z"
       fill="#353D3F" /><path
       id="path46"
       d="M307.6,114.6c0.1-0.2,0.1-0.4,0.1-0.6c0-0.3-0.1-0.5-0.4-0.6c-0.2-0.1-0.7-0.2-1.3-0.3   c-0.2,0-0.3-0.2-0.3-0.5c0,0,0-0.1,0-0.1s0-0.1,0-0.2l0-0.2c0.2,0,0.4,0,0.6,0.1c0.2,0,0.5,0,0.8,0c0.3,0,0.6,0,0.9,0   c0.3,0,0.6,0,0.8,0c0.6,0,1.1,0,1.6,0c0.5,0,0.9-0.1,1.3-0.1l0,0.2c0,0.1,0,0.1,0,0.2s0,0.1,0,0.1c0,0.4-0.1,0.6-0.3,0.6   c-0.6,0.1-1,0.2-1.3,0.3c-0.3,0.1-0.5,0.4-0.6,0.8l-7.1,16.9c-0.1,0-0.2,0-0.2,0c-0.1,0-0.1,0-0.2,0c-0.2,0-0.3,0-0.3-0.1   c-0.1-0.1-0.1-0.2-0.2-0.4l-6.7-16.6c-0.1-0.1-0.1-0.3-0.2-0.4c-0.1-0.1-0.2-0.2-0.3-0.3c-0.1-0.1-0.3-0.1-0.5-0.2   c-0.2,0-0.5-0.1-0.9-0.1c-0.2,0-0.4-0.2-0.4-0.6c0-0.1,0-0.1,0-0.2c0-0.1,0-0.2,0.1-0.2c0.3,0,0.6,0,1,0.1c0.4,0,0.7,0,1.1,0   c0.4,0,0.7,0,1.1,0c0.4,0,0.7,0,0.9,0c0.6,0,1.3,0,2.1,0c0.7,0,1.4-0.1,2-0.1c0,0.1,0.1,0.2,0.1,0.3s0,0.2,0,0.2   c0,0.3-0.1,0.5-0.3,0.5c-0.6,0.1-1,0.2-1.3,0.3c-0.2,0.1-0.4,0.3-0.4,0.5c0,0.1,0,0.3,0.1,0.5l4.2,11.3L307.6,114.6z"
       fill="#353D3F" /><path
       id="path48"
       d="M323.7,113.6v6.9h4c0.4,0,0.6-0.1,0.7-0.4s0.2-0.8,0.3-1.4c0-0.2,0.1-0.3,0.2-0.3c0.1,0,0.2-0.1,0.4-0.1   c0.1,0,0.1,0,0.3,0c0.1,0,0.2,0,0.3,0c0,0.4-0.1,1-0.1,1.5c0,0.6,0,1.1,0,1.5c0,0.3,0,0.8,0,1.2c0,0.5,0.1,1,0.1,1.6   c-0.1,0-0.1,0.1-0.3,0.1s-0.2,0-0.3,0c-0.3,0-0.5-0.1-0.5-0.4c-0.1-0.7-0.2-1.2-0.4-1.5c-0.1-0.3-0.4-0.4-0.7-0.4h-4v6.4   c0,0.4,0.2,0.7,0.7,0.8c0.5,0.1,1.3,0.2,2.5,0.2h1.2c0.6,0,1.1-0.1,1.4-0.2c0.4-0.2,0.7-0.4,1-0.6c0.3-0.3,0.6-0.6,0.8-1   c0.2-0.4,0.5-0.8,0.7-1.2c0.1-0.1,0.2-0.2,0.4-0.2c0.1,0,0.2,0,0.3,0.1s0.3,0.1,0.4,0.2c0,0.2-0.1,0.3-0.1,0.4s-0.1,0.3-0.1,0.4   c-0.1,0.2-0.2,0.4-0.2,0.7c-0.1,0.2-0.1,0.5-0.2,0.6c0,0.2-0.1,0.4-0.1,0.6c0,0.2-0.1,0.5-0.1,0.7s-0.1,0.4-0.1,0.6   c0,0.2-0.1,0.3-0.1,0.3c-0.1,0.2-0.2,0.2-0.5,0.2c-0.2,0-0.4,0-0.7,0c-0.3,0-0.6,0-0.9,0s-0.7,0-1,0c-0.3,0-0.6,0-0.9,0h-6.5   c-0.6,0-1.2,0-1.9,0s-1.4,0.1-1.9,0.1c0-0.1-0.1-0.2-0.1-0.3c0-0.1,0-0.2,0-0.3c0-0.3,0.1-0.4,0.3-0.5c0.7-0.1,1.2-0.3,1.6-0.4   c0.3-0.2,0.5-0.4,0.5-0.8v-14.4c0-0.2,0-0.3-0.1-0.5c-0.1-0.1-0.2-0.2-0.3-0.3c-0.2-0.1-0.4-0.2-0.6-0.2c-0.3-0.1-0.6-0.1-1-0.2   c-0.2-0.1-0.3-0.2-0.3-0.5c0-0.1,0-0.2,0-0.3c0-0.1,0-0.2,0.1-0.3c0.8,0.1,1.5,0.1,2.2,0.1c0.6,0,1.2,0,1.6,0h5.9   c0.9,0,1.6,0,2.2-0.1s1-0.1,1.3-0.1c0.2,0,0.4,0.1,0.5,0.3c0.1,0.2,0.1,0.4,0.1,0.8c0,0.4,0.1,0.8,0.2,1.3c0.1,0.3,0.1,0.6,0.2,0.9   c0.1,0.3,0.2,0.7,0.3,1.1c-0.1,0-0.2,0.1-0.3,0.1c-0.1,0-0.2,0.1-0.3,0.1c-0.2,0-0.4-0.1-0.5-0.3c-0.2-0.5-0.5-0.9-0.7-1.3   c-0.2-0.4-0.5-0.6-0.7-0.9c-0.3-0.2-0.6-0.4-1-0.5s-0.8-0.1-1.3-0.1H323.7z"
       fill="#353D3F" /><path
       id="path50"
       d="M77.9,167.8c0-2.1,0.7-3.8,2.1-5.2c1.4-1.4,3-2,4.9-2c2.1,0,3.8,0.7,5.2,2c1.4,1.4,2.1,3.1,2.1,5.2   c0,2.1-0.7,3.8-2,5.2S87,175,84.9,175c-2.1,0-3.7-0.7-5.1-2C78.5,171.6,77.9,169.9,77.9,167.8z M85,163.4c-1.2,0-2.1,0.4-2.9,1.2   c-0.7,0.8-1.1,1.9-1.1,3.2c0,1.3,0.4,2.3,1.1,3.1c0.7,0.8,1.7,1.2,2.8,1.2c1.2,0,2.1-0.4,2.9-1.2c0.7-0.8,1.1-1.9,1.1-3.2   c0-1.3-0.4-2.4-1.1-3.2C87.1,163.8,86.2,163.4,85,163.4z"
       fill="#353D3F" /><path
       id="path52"
       d="M105.6,160.7h4.6c1.4,0,2.5,0.4,3.4,1.1c0.8,0.7,1.2,1.8,1.2,3c0,0.7-0.2,1.5-0.6,2.3s-1.1,1.4-2.1,1.8   l3.9,5.9h-3.5l-3.7-5.5h-0.3v5.5h-3V160.7z M108.7,163.2v3.7h0.7c1.6,0,2.4-0.6,2.4-1.9c0-0.5-0.2-1-0.6-1.3   c-0.4-0.3-1-0.5-1.7-0.5H108.7z"
       fill="#353D3F" /><path
       id="path54"
       d="M140.8,163.8l-2,1.9c-0.4-0.7-0.9-1.3-1.6-1.6c-0.6-0.4-1.3-0.5-2-0.5c-1.1,0-2.1,0.4-2.9,1.3   c-0.8,0.8-1.2,1.8-1.2,3c0,1.2,0.4,2.2,1.2,3.1c0.8,0.8,1.8,1.3,2.9,1.3c0.6,0,1.2-0.2,1.8-0.5c0.6-0.3,1-0.9,1.4-1.8h-3.3V167h6.5   v1.8c0,0.9-0.3,1.9-1,3c-0.6,1.1-1.5,1.9-2.5,2.4c-1.1,0.5-2.1,0.7-3.2,0.7c-1.9,0-3.6-0.7-4.9-2.1c-1.3-1.4-2-3.2-2-5.2   c0-2,0.7-3.7,2.1-5c1.4-1.4,3-2.1,5-2.1C137.5,160.5,139.5,161.6,140.8,163.8z"
       fill="#353D3F" /><path
       id="path56"
       d="M159.8,160.7h2.4l5.7,14.1h-3.1l-1.1-2.8h-5.4l-1.1,2.8h-3L159.8,160.7z M161,165.3l-1.7,4.2h3.4L161,165.3   z"
       fill="#353D3F" /><path
       id="path58"
       d="M190.4,160.7h3v14.1h-3l-6.4-9.1v9.1h-3v-14.1h3l6.5,9.1V160.7z"
       fill="#353D3F" /><path
       id="path60"
       d="M207.1,160.7h3v14.1h-3V160.7z"
       fill="#353D3F" /><path
       id="path62"
       d="M234.5,161.5v3.4c-1.5-0.9-2.9-1.4-4-1.4s-2.1,0.4-2.8,1.2s-1,1.8-1,3.2c0,1.3,0.4,2.3,1.1,3   c0.7,0.8,1.7,1.1,2.9,1.1c1.1,0,2.3-0.4,3.8-1.3v3.4c-1.7,0.6-3,0.8-4.1,0.8c-1.9,0-3.5-0.7-4.8-2.1c-1.3-1.4-2-3.1-2-5.1   c0-2,0.7-3.8,2-5.2c1.3-1.4,3-2.1,4.9-2.1C231.7,160.5,233,160.8,234.5,161.5z"
       fill="#353D3F" /><path
       id="path64"
       d="M255.7,162l-1.9,2.1c-1-0.6-1.7-0.9-2.1-0.9c-0.3,0-0.6,0.1-0.9,0.4c-0.2,0.3-0.4,0.6-0.4,0.9   c0,0.7,0.6,1.3,1.9,1.8c0.9,0.4,1.6,0.8,2.1,1.1c0.5,0.3,0.9,0.8,1.2,1.3c0.3,0.6,0.5,1.2,0.5,1.8c0,1.2-0.5,2.3-1.5,3.2   c-1,0.9-2.1,1.3-3.5,1.3c-1.5,0-2.9-0.7-4.3-2.1l2-2.3c0.9,0.9,1.7,1.4,2.5,1.4c0.4,0,0.7-0.2,1.1-0.5s0.5-0.7,0.5-1   c0-0.7-0.8-1.4-2.3-1.9c-0.9-0.3-1.5-0.6-1.9-0.9c-0.4-0.3-0.7-0.7-0.9-1.2c-0.3-0.5-0.4-1.1-0.4-1.7c0-1.3,0.4-2.3,1.2-3.1   s1.9-1.2,3.2-1.2C253.3,160.5,254.6,161,255.7,162z"
       fill="#353D3F" /><path
       id="path66"
       d="M98.2,193.6l-1,1.1c-0.5-0.3-0.9-0.5-1.1-0.5c-0.2,0-0.3,0.1-0.5,0.2c-0.1,0.1-0.2,0.3-0.2,0.5   c0,0.4,0.3,0.7,1,0.9c0.5,0.2,0.8,0.4,1.1,0.6c0.2,0.2,0.5,0.4,0.6,0.7s0.2,0.6,0.2,1c0,0.6-0.3,1.2-0.8,1.7   c-0.5,0.5-1.1,0.7-1.8,0.7c-0.8,0-1.5-0.4-2.3-1.1l1-1.2c0.5,0.5,0.9,0.7,1.3,0.7c0.2,0,0.4-0.1,0.6-0.3c0.2-0.2,0.3-0.3,0.3-0.5   c0-0.4-0.4-0.7-1.2-1c-0.5-0.2-0.8-0.3-1-0.5c-0.2-0.1-0.4-0.4-0.5-0.6c-0.1-0.3-0.2-0.6-0.2-0.9c0-0.7,0.2-1.2,0.6-1.6   c0.4-0.4,1-0.6,1.7-0.6C97,192.8,97.7,193.1,98.2,193.6z"
       fill="#B19868" /><path
       id="path68"
       d="M104.7,192.9h1.2l3,7.4h-1.6l-0.6-1.4h-2.8l-0.6,1.4h-1.6L104.7,192.9z M105.3,195.4l-0.9,2.2h1.8   L105.3,195.4z"
       fill="#B19868" /><path
       id="path70"
       d="M117.4,192.9h1.6v7.4h-1.5l-3.4-4.8v4.8h-1.6v-7.4h1.6l3.4,4.7V192.9z"
       fill="#B19868" /><path
       id="path72"
       d="M122.5,192.9h5v1.6h-1.7v5.8h-1.6v-5.8h-1.7V192.9z"
       fill="#B19868" /><path
       id="path74"
       d="M132.8,192.9h1.2l3,7.4h-1.6l-0.6-1.4H132l-0.6,1.4h-1.6L132.8,192.9z M133.4,195.4l-0.9,2.2h1.8   L133.4,195.4z"
       fill="#B19868" /><path
       id="path76"
       d="M146.2,192.9h2.1c0.9,0,1.5,0.2,1.8,0.6s0.5,0.8,0.5,1.3c0,0.3-0.1,0.6-0.2,0.8s-0.3,0.4-0.6,0.7   c0.5,0.2,0.9,0.4,1.1,0.8s0.3,0.7,0.3,1.1c0,0.7-0.2,1.2-0.7,1.6c-0.5,0.4-1.1,0.6-2,0.6h-2.5V192.9z M147.8,194.2v1.6h0.4   c0.3,0,0.5-0.1,0.7-0.3s0.3-0.4,0.3-0.6c0-0.2-0.1-0.4-0.3-0.5c-0.2-0.1-0.4-0.2-0.7-0.2H147.8z M147.8,197v2h0.6   c0.9,0,1.3-0.3,1.3-1c0-0.3-0.1-0.6-0.3-0.8c-0.2-0.2-0.5-0.3-0.9-0.3H147.8z"
       fill="#B19868" /><path
       id="path78"
       d="M157.2,192.9h1.2l3,7.4h-1.6l-0.6-1.4h-2.8l-0.6,1.4h-1.6L157.2,192.9z M157.8,195.4l-0.9,2.2h1.8   L157.8,195.4z"
       fill="#B19868" /><path
       id="path80"
       d="M165.1,192.9h2.4c0.7,0,1.3,0.2,1.8,0.6c0.4,0.4,0.6,0.9,0.6,1.6c0,0.4-0.1,0.8-0.3,1.2   c-0.2,0.4-0.6,0.7-1.1,1l2.1,3.1h-1.8l-1.9-2.9h-0.2v2.9h-1.6V192.9z M166.7,194.3v1.9h0.3c0.8,0,1.2-0.3,1.2-1   c0-0.3-0.1-0.5-0.3-0.7c-0.2-0.2-0.5-0.2-0.9-0.2H166.7z"
       fill="#B19868" /><path
       id="path82"
       d="M174.3,192.9h2.1c0.9,0,1.5,0.2,1.8,0.6s0.5,0.8,0.5,1.3c0,0.3-0.1,0.6-0.2,0.8s-0.3,0.4-0.6,0.7   c0.5,0.2,0.9,0.4,1.1,0.8c0.2,0.3,0.3,0.7,0.3,1.1c0,0.7-0.2,1.2-0.7,1.6c-0.5,0.4-1.1,0.6-2,0.6h-2.5V192.9z M175.9,194.2v1.6h0.4   c0.3,0,0.5-0.1,0.7-0.3s0.3-0.4,0.3-0.6c0-0.2-0.1-0.4-0.3-0.5c-0.2-0.1-0.4-0.2-0.7-0.2H175.9z M175.9,197v2h0.6   c0.9,0,1.3-0.3,1.3-1c0-0.3-0.1-0.6-0.3-0.8c-0.2-0.2-0.5-0.3-0.9-0.3H175.9z"
       fill="#B19868" /><path
       id="path84"
       d="M185.3,192.9h1.2l3,7.4h-1.6l-0.6-1.4h-2.8l-0.6,1.4h-1.6L185.3,192.9z M185.9,195.4l-0.9,2.2h1.8   L185.9,195.4z"
       fill="#B19868" /><path
       id="path86"
       d="M193.1,192.9h2.4c0.7,0,1.3,0.2,1.8,0.6c0.4,0.4,0.6,0.9,0.6,1.6c0,0.4-0.1,0.8-0.3,1.2   c-0.2,0.4-0.6,0.7-1.1,1l2.1,3.1h-1.8l-1.9-2.9h-0.2v2.9h-1.6V192.9z M194.7,194.3v1.9h0.3c0.8,0,1.2-0.3,1.2-1   c0-0.3-0.1-0.5-0.3-0.7s-0.5-0.2-0.9-0.2H194.7z"
       fill="#B19868" /><path
       id="path88"
       d="M205,192.9h1.2l3,7.4h-1.6l-0.6-1.4h-2.8l-0.6,1.4H202L205,192.9z M205.6,195.4l-0.9,2.2h1.8L205.6,195.4z"
       fill="#B19868" /><path
       id="path90"
       d="M213.1,198.6h1.4l-1.2,3.1h-0.8L213.1,198.6z"
       fill="#B19868" /><path
       id="path92"
       d="M229.5,193.3v1.8c-0.8-0.5-1.5-0.7-2.1-0.7c-0.6,0-1.1,0.2-1.4,0.6c-0.4,0.4-0.5,1-0.5,1.7   c0,0.7,0.2,1.2,0.6,1.6c0.4,0.4,0.9,0.6,1.5,0.6c0.6,0,1.2-0.2,2-0.7v1.8c-0.9,0.3-1.6,0.4-2.2,0.4c-1,0-1.8-0.4-2.5-1.1   c-0.7-0.7-1-1.6-1-2.7c0-1.1,0.4-2,1.1-2.7c0.7-0.7,1.6-1.1,2.6-1.1C228,192.8,228.7,193,229.5,193.3z"
       fill="#B19868" /><path
       id="path94"
       d="M235.7,192.9h1.2l3,7.4h-1.6l-0.6-1.4H235l-0.6,1.4h-1.6L235.7,192.9z M236.4,195.4l-0.9,2.2h1.8   L236.4,195.4z"
       fill="#B19868" /></g><rect
     id="rect98"
     height="1.5"
     width="184"
     fill="#B19868"
     y="144.6"
     x="74.9" /><g
     id="g106"><path
       id="path100"
       d="M140.6,56.6c0,12.1-13.9,12.1-13.9,12.1h-6.9v17.4h-7V61.9h6.6l-6.6-10.4v-7h13.9   C126.8,44.5,140.6,44.5,140.6,56.6z M133.7,56.6c0-5.2-7-5.2-7-5.2h-5.6l6.5,10.4C129.5,61.6,133.7,60.7,133.7,56.6z"
       fill="#353D3F" /><path
       id="path102"
       d="M164.6,68.8H159v17.4h-7V44.5h13.9c0,0,13.9,0,13.9,12.1c0,6.7-4.3,9.7-8,11.1l8.5,18.4h-7.7L164.6,68.8z    M159,61.9h6.9c0,0,7,0,7-5.2c0-5.2-7-5.2-7-5.2H159V61.9z"
       fill="#353D3F" /><path
       id="path104"
       d="M190.9,59.4c0-8.5,7-15.5,15.5-15.5s15.5,7,15.5,15.5c0,8.5-7,15.5-15.5,15.5S190.9,67.9,190.9,59.4z    M219.9,86.1h-27.5v-6.9h27.5V86.1z M197.8,59.4c0,4.8,3.8,8.6,8.6,8.6s8.6-3.8,8.6-8.6c0-4.8-3.8-8.6-8.6-8.6   S197.8,54.6,197.8,59.4z"
       fill="#353D3F" /></g><g
     id="g124"><path
       id="path108"
       d="M78.8,68.9v-9.7h5v1.1h-3.8v3.1h3.5v1.1h-3.5v3.4H84v1.1H78.8z"
       fill="#B19868" /><path
       id="path110"
       d="M87.6,66v0.3c0,1.3,0.8,1.7,1.6,1.7c1,0,1.7-0.4,1.7-1.6c0-2.2-4.4-1.9-4.4-4.8c0-1.7,1.2-2.6,2.9-2.6   c1.8,0,2.8,0.9,2.7,2.8h-1.3c0-1.1-0.3-1.8-1.5-1.8c-0.7,0-1.5,0.4-1.5,1.4c0,2.1,4.4,1.8,4.4,4.9c0,2.1-1.4,2.7-3,2.7   c-2.9,0-2.9-2.2-2.8-3.1H87.6z"
       fill="#B19868" /><path
       id="path112"
       d="M100.6,59.1v1.1H98v8.7h-1.2v-8.7h-2.6v-1.1H100.6z"
       fill="#B19868" /><path
       id="path114"
       d="M102.7,68.9h-1.3v-1.4h1.3V68.9z"
       fill="#B19868" /><path
       id="path116"
       d="M229.5,68.9v-1.1c2.7-3.8,3.6-4.5,3.6-6.2c0-0.7-0.4-1.2-1.2-1.2c-0.9,0-1.1,0.8-1.1,1.5h-1.3   c-0.1-1.6,0.7-2.6,2.3-2.6c1.7,0,2.5,0.8,2.5,2.5c0,2.1-1.1,2.8-3.5,6h3.7v1.1H229.5z"
       fill="#B19868" /><path
       id="path118"
       d="M241.4,64.2c0,2.4,0,4.8-2.5,4.8s-2.5-2.4-2.5-4.8c0-2.5,0-4.9,2.5-4.9C241.4,59.3,241.4,61.7,241.4,64.2z    M237.6,64.5c0,1.6-0.1,3.6,1.3,3.6c1.4,0,1.3-2,1.3-3.6c0-2.5,0-4.1-1.3-4.1S237.6,61.9,237.6,64.5z"
       fill="#B19868" /><path
       id="path120"
       d="M246.8,68.9h-1.2v-8l-1.4,0.9v-1.2c0.3-0.1,1.2-0.8,1.6-1.1h1.1V68.9z"
       fill="#B19868" /><path
       id="path122"
       d="M250.5,68.9v-1.1c2.7-3.8,3.6-4.5,3.6-6.2c0-0.7-0.4-1.2-1.2-1.2c-0.9,0-1.1,0.8-1.1,1.5h-1.3   c-0.1-1.6,0.7-2.6,2.3-2.6c1.7,0,2.5,0.8,2.5,2.5c0,2.1-1.1,2.8-3.5,6h3.7v1.1H250.5z"
       fill="#B19868" /></g></svg>